<svg id="Layer_1" data-name="Layer 1" xmlns="http://www.w3.org/2000/svg" viewBox="0 0 886 146"><defs><style>.cls-1{fill:#212b36;}.cls-2{fill:#00ab55;}</style></defs><title>04-Svg file</title><path class="cls-1" d="M191.89,123.06V22.53h74.25L266,44.92H219.15V61.6h39.21V83.43H218.94v17.11h47.34v22.52Z"/><path class="cls-1" d="M356.52,123.06H328.71L315,104l-13.91,19H273.23l27.53-37.54-25-34.35h27.81l11.54,15.58,11.4-15.58H354.3L329,85.52Z"/><path class="cls-1" d="M364.17,145.45V51.17h27.18v8.35A20.65,20.65,0,0,1,396,54.86a24.74,24.74,0,0,1,5.46-3,29.67,29.67,0,0,1,5.7-1.6,32.45,32.45,0,0,1,5.36-.49,23.86,23.86,0,0,1,13.48,4q6,4,9.46,12.2t3.47,21q0,13.7-4.13,21.93t-10.85,11.93a29.42,29.42,0,0,1-14.35,3.68,21.44,21.44,0,0,1-4.7-.55,22.71,22.71,0,0,1-4.93-1.78,22.23,22.23,0,0,1-4.7-3.13,21.72,21.72,0,0,1-4-4.69v31.15Zm38.3-40.33q4.53,0,8-4.27t3.44-13.94q0-8.76-3.44-13.42t-8-4.66a9,9,0,0,0-8.58,5.39,28.12,28.12,0,0,0-2.68,12.69,32,32,0,0,0,1.18,8.59,16.9,16.9,0,0,0,3.65,6.91A8.29,8.29,0,0,0,402.47,105.12Z"/><path class="cls-1" d="M472.76,93.31a14.78,14.78,0,0,0,1.32,7,8.88,8.88,0,0,0,3.79,4,11.37,11.37,0,0,0,5.32,1.25,15.38,15.38,0,0,0,6.64-1.39q3-1.4,4.62-5.56h23.92a25.37,25.37,0,0,1-6.33,13.8,34.92,34.92,0,0,1-12.69,8.93,39.6,39.6,0,0,1-15.47,3.13,41.25,41.25,0,0,1-19.71-4.55,32.87,32.87,0,0,1-13.24-12.76A37.63,37.63,0,0,1,446.2,88a41.82,41.82,0,0,1,4.35-19,35,35,0,0,1,12.51-14q8.18-5.28,19.71-5.29,11.75,0,19.61,4.87A30.48,30.48,0,0,1,514.16,68a44.78,44.78,0,0,1,3.93,19.09v6.26Zm-.14-15.16h20.51a10.93,10.93,0,0,0-1.18-5,9.15,9.15,0,0,0-3.48-3.72,10.8,10.8,0,0,0-5.7-1.39,9.57,9.57,0,0,0-5.07,1.39A10.77,10.77,0,0,0,474,73.11,9.62,9.62,0,0,0,472.62,78.15Z"/><path class="cls-1" d="M529.14,123.06V51.17h26.77v9.95a31,31,0,0,1,3.89-4.66,19,19,0,0,1,6.12-4,24,24,0,0,1,9.39-1.6,30.65,30.65,0,0,1,12.06,2.43,21.2,21.2,0,0,1,9.38,7.79q3.66,5.35,3.65,14.11v47.83H573.29V78.91a6.24,6.24,0,0,0-2.64-5.42,9.66,9.66,0,0,0-5.7-1.88,10.52,10.52,0,0,0-4,.84,8.58,8.58,0,0,0-3.41,2.47,6.06,6.06,0,0,0-1.35,4v44.15Z"/><path class="cls-1" d="M643.93,124.45a45,45,0,0,1-14.88-2.57,31.71,31.71,0,0,1-12.73-8.2Q611,108,609.44,98.87h22.94a8.83,8.83,0,0,0,3.2,5.14,12.18,12.18,0,0,0,4.66,2.16,19.68,19.68,0,0,0,3.55.48,20.58,20.58,0,0,0,7.3-1.07q2.77-1.08,2.78-3.24A3.55,3.55,0,0,0,652,99.18c-1.25-.76-3.5-1.38-6.74-1.84l-10.64-1.67Q624.32,93.8,618,88.58T611.53,73.7a20.22,20.22,0,0,1,3.72-12.1A25.6,25.6,0,0,1,626.37,53q7.33-3.19,17.83-3.2,14.74,0,23.36,6.4a20.5,20.5,0,0,1,8.62,17.38h-22a7.08,7.08,0,0,0-3.69-4.83,13.8,13.8,0,0,0-6.6-1.56,16.26,16.26,0,0,0-6.37,1.11c-1.73.74-2.6,1.8-2.6,3.2,0,1.25.83,2.25,2.5,3a36.52,36.52,0,0,0,8.27,2.12l9.25,1.67a35,35,0,0,1,11.23,4.52A23.56,23.56,0,0,1,672.67,89a21.08,21.08,0,0,1,3.1,6.47,22,22,0,0,1,.83,5.38,19.69,19.69,0,0,1-4.34,13,26.89,26.89,0,0,1-11.75,8A47.94,47.94,0,0,1,643.93,124.45Z"/><path class="cls-1" d="M710.81,93.31a14.78,14.78,0,0,0,1.32,7,8.83,8.83,0,0,0,3.79,4,11.33,11.33,0,0,0,5.31,1.25,15.35,15.35,0,0,0,6.64-1.39q3-1.4,4.63-5.56h23.91a25.43,25.43,0,0,1-6.32,13.8,34.92,34.92,0,0,1-12.69,8.93,39.6,39.6,0,0,1-15.47,3.13,41.25,41.25,0,0,1-19.71-4.55A32.81,32.81,0,0,1,689,107.14,37.53,37.53,0,0,1,684.25,88a41.94,41.94,0,0,1,4.34-19,35,35,0,0,1,12.52-14q8.16-5.28,19.71-5.29,11.74,0,19.6,4.87A30.44,30.44,0,0,1,752.21,68a44.93,44.93,0,0,1,3.92,19.09v6.26Zm-.14-15.16h20.51a10.94,10.94,0,0,0-1.19-5,9.06,9.06,0,0,0-3.47-3.72,10.8,10.8,0,0,0-5.7-1.39,9.58,9.58,0,0,0-5.08,1.39,10.66,10.66,0,0,0-3.68,3.72A9.62,9.62,0,0,0,710.67,78.15Z"/><path class="cls-1" d="M794.51,124.59q-9.94,0-15.54-2.12t-8.1-5.53a16.39,16.39,0,0,1-3.09-7.51,55.55,55.55,0,0,1-.59-8.06V19.75h26.49v78a9.51,9.51,0,0,0,1.32,4.87q1.32,2.3,6.81,3.06l2.92.28v16.41a50.32,50.32,0,0,1-5,1.56A20.84,20.84,0,0,1,794.51,124.59Z"/><path class="cls-1" d="M826.56,146A40.19,40.19,0,0,1,810.92,143V125.84l6.88.42a27.93,27.93,0,0,0,8.31-.31,10.58,10.58,0,0,0,4.41-2,6.18,6.18,0,0,0,1.81-2.33c.28-.74.44-1.2.49-1.39l.27-1.39L805.21,51.17h26.56L845.4,90.25l14.11-39.08H886l-28.09,67.72q-4.65,11.33-9.52,17.17A25.52,25.52,0,0,1,838.13,144,32.19,32.19,0,0,1,826.56,146Z"/><path class="cls-2" d="M143.25,123.81l-19.44,19.44a8,8,0,0,1-11.31,0L102.2,133a29.62,29.62,0,0,0-21-8.68H64.35A29.6,29.6,0,0,0,43.4,133l-10.3,10.3a8,8,0,0,1-11.32,0L2.34,123.81a8,8,0,0,1,0-11.31l10.31-10.3a29.71,29.71,0,0,0,6.82-10.64,8.48,8.48,0,0,1,8-5.49h0a8.48,8.48,0,0,1,8,5.49,29.71,29.71,0,0,0,6.82,10.64l1.16,1.16a29.68,29.68,0,0,0,21,8.68h16.9a29.66,29.66,0,0,0,21-8.68l10.3-10.3a8,8,0,0,1,11.31,0l19.44,19.44A8,8,0,0,1,143.25,123.81Z"/><path class="cls-2" d="M143.25,33.1,123.81,52.54a8,8,0,0,1-11.31,0l-10.3-10.3a29.65,29.65,0,0,0-21-8.69H64.35A29.61,29.61,0,0,0,43.4,42.24L42.23,43.4A29.62,29.62,0,0,0,35.41,54a8.48,8.48,0,0,1-8,5.49h0a8.48,8.48,0,0,1-8-5.49A29.62,29.62,0,0,0,12.65,43.4L2.34,33.1a8,8,0,0,1,0-11.32L21.78,2.35a8,8,0,0,1,11.32,0L43.4,12.64a29.6,29.6,0,0,0,20.95,8.68H81.24a29.64,29.64,0,0,0,21-8.68L112.5,2.35a8,8,0,0,1,11.31,0l19.44,19.43A8,8,0,0,1,143.25,33.1Z"/><path class="cls-2" d="M98.84,78.45,79.41,97.89a8,8,0,0,1-11.32,0l-10.3-10.3a29.68,29.68,0,0,0-20.95-8.68H16.44a6.11,6.11,0,0,1-6.11-6.11h0a6.12,6.12,0,0,1,6.11-6.12H36.83a29.64,29.64,0,0,0,21-8.68l10.3-10.3a8,8,0,0,1,11.32,0L98.84,67.14A8,8,0,0,1,98.84,78.45Z"/></svg>